<svg xmlns="http://www.w3.org/2000/svg" width="860" height="500" viewBox="0 0 860 500" role="img">
<style>text{font-family:Inter,ui-sans-serif,system-ui,-apple-system,BlinkMacSystemFont,"Segoe UI",sans-serif;fill:#20242b}.axis{font-size:13px}.label{font-size:14px;font-weight:600}.title{font-size:24px;font-weight:700}.subtitle{font-size:14px;fill:#565d68}.legend{font-size:13px}</style>
<rect width="860" height="500" fill="#fbfaf7"/>
<text x="82.0" y="38.0" class="title">Comparable loss near 9M tokens</text>
<text x="82.0" y="64.0" class="subtitle">Nearest recorded raw train loss for every run at one shared horizon</text>
<line x1="82.0" y1="92" x2="82.0" y2="425" stroke="#d8d6d0" stroke-width="1"/>
<text x="82.0" y="449.0" class="axis" text-anchor="middle">0.005</text>
<line x1="249.3" y1="92" x2="249.3" y2="425" stroke="#d8d6d0" stroke-width="1"/>
<text x="249.3" y="449.0" class="axis" text-anchor="middle">0.01</text>
<line x1="470.4" y1="92" x2="470.4" y2="425" stroke="#d8d6d0" stroke-width="1"/>
<text x="470.4" y="449.0" class="axis" text-anchor="middle">0.025</text>
<line x1="514.4" y1="92" x2="514.4" y2="425" stroke="#d8d6d0" stroke-width="1"/>
<text x="514.4" y="449.0" class="axis" text-anchor="middle">0.03</text>
<line x1="718.9" y1="92" x2="718.9" y2="425" stroke="#d8d6d0" stroke-width="1"/>
<text x="718.9" y="449.0" class="axis" text-anchor="middle">0.07</text>
<line x1="805.0" y1="92" x2="805.0" y2="425" stroke="#d8d6d0" stroke-width="1"/>
<text x="805.0" y="449.0" class="axis" text-anchor="middle">0.1</text>
<line x1="82" y1="375.1" x2="805" y2="375.1" stroke="#d8d6d0" stroke-width="1"/>
<text x="70.0" y="379.1" class="axis" text-anchor="end">5</text>
<line x1="82" y1="308.5" x2="805" y2="308.5" stroke="#d8d6d0" stroke-width="1"/>
<text x="70.0" y="312.5" class="axis" text-anchor="end">6</text>
<line x1="82" y1="241.8" x2="805" y2="241.8" stroke="#d8d6d0" stroke-width="1"/>
<text x="70.0" y="245.8" class="axis" text-anchor="end">7</text>
<line x1="82" y1="175.2" x2="805" y2="175.2" stroke="#d8d6d0" stroke-width="1"/>
<text x="70.0" y="179.2" class="axis" text-anchor="end">8</text>
<line x1="82" y1="108.7" x2="805" y2="108.7" stroke="#d8d6d0" stroke-width="1"/>
<text x="70.0" y="112.7" class="axis" text-anchor="end">9</text>
<rect x="82" y="92" width="723" height="333" fill="none" stroke="#20242b" stroke-width="1.5"/>
<polyline points="82.0,283.2 249.3,253.7 470.4,361.2 514.4,392.7 718.9,351.4 805.0,115.8" fill="none" stroke="#707782" stroke-width="2" stroke-dasharray="5 5"/>
<circle cx="82.0" cy="283.2" r="7" fill="#2a9d8f" stroke="white" stroke-width="2"/>
<text x="93.0" y="271.2" class="label" text-anchor="start">6.379</text>
<text x="93.0" y="291.2" class="legend" text-anchor="start">8.95M tokens</text>
<circle cx="249.3" cy="253.7" r="7" fill="#6a4c93" stroke="white" stroke-width="2"/>
<text x="260.3" y="241.7" class="label" text-anchor="start">6.822</text>
<text x="260.3" y="261.7" class="legend" text-anchor="start">8.95M tokens</text>
<circle cx="470.4" cy="361.2" r="7" fill="#30638e" stroke="white" stroke-width="2"/>
<text x="459.4" y="349.2" class="label" text-anchor="end">5.209</text>
<text x="459.4" y="369.2" class="legend" text-anchor="end">8.95M tokens</text>
<circle cx="514.4" cy="392.7" r="7" fill="#00798c" stroke="white" stroke-width="2"/>
<text x="525.4" y="380.7" class="label" text-anchor="start">4.735</text>
<text x="525.4" y="400.7" class="legend" text-anchor="start">8.95M tokens</text>
<circle cx="718.9" cy="351.4" r="7" fill="#edae49" stroke="white" stroke-width="2"/>
<text x="707.9" y="339.4" class="label" text-anchor="end">5.355</text>
<text x="707.9" y="359.4" class="legend" text-anchor="end">8.95M tokens</text>
<circle cx="805.0" cy="115.8" r="7" fill="#d1495b" stroke="white" stroke-width="2"/>
<text x="794.0" y="103.8" class="label" text-anchor="end">8.892</text>
<text x="794.0" y="123.8" class="legend" text-anchor="end">8.95M tokens</text>
<text x="443.5" y="476.0" class="label" text-anchor="middle">AdamW-managed auxiliary parameter LR (log scale)</text>
<text x="22" y="258.5" class="label" text-anchor="middle" transform="rotate(-90 22 258.5)">Train loss / token</text>
</svg>
