<svg xmlns="http://www.w3.org/2000/svg" width="960" height="560" viewBox="0 0 960 560" role="img">
<style>text{font-family:Inter,ui-sans-serif,system-ui,-apple-system,BlinkMacSystemFont,"Segoe UI",sans-serif;fill:#20242b}.axis{font-size:13px}.label{font-size:14px;font-weight:600}.title{font-size:24px;font-weight:700}.subtitle{font-size:14px;fill:#565d68}.legend{font-size:13px}</style>
<rect width="960" height="560" fill="#fbfaf7"/>
<text x="78.0" y="38.0" class="title">Hybrid Muon training loss</text>
<text x="78.0" y="64.0" class="subtitle">Only the AdamW-managed auxiliary parameter LR varies; 5-point trailing mean</text>
<line x1="78.0" y1="92" x2="78.0" y2="492" stroke="#d8d6d0" stroke-width="1"/>
<text x="78.0" y="516.0" class="axis" text-anchor="middle">0</text>
<line x1="158.2" y1="92" x2="158.2" y2="492" stroke="#d8d6d0" stroke-width="1"/>
<text x="158.2" y="516.0" class="axis" text-anchor="middle">5</text>
<line x1="238.5" y1="92" x2="238.5" y2="492" stroke="#d8d6d0" stroke-width="1"/>
<text x="238.5" y="516.0" class="axis" text-anchor="middle">10</text>
<line x1="318.8" y1="92" x2="318.8" y2="492" stroke="#d8d6d0" stroke-width="1"/>
<text x="318.8" y="516.0" class="axis" text-anchor="middle">15</text>
<line x1="399.0" y1="92" x2="399.0" y2="492" stroke="#d8d6d0" stroke-width="1"/>
<text x="399.0" y="516.0" class="axis" text-anchor="middle">20</text>
<line x1="479.2" y1="92" x2="479.2" y2="492" stroke="#d8d6d0" stroke-width="1"/>
<text x="479.2" y="516.0" class="axis" text-anchor="middle">25</text>
<line x1="559.5" y1="92" x2="559.5" y2="492" stroke="#d8d6d0" stroke-width="1"/>
<text x="559.5" y="516.0" class="axis" text-anchor="middle">30</text>
<line x1="639.8" y1="92" x2="639.8" y2="492" stroke="#d8d6d0" stroke-width="1"/>
<text x="639.8" y="516.0" class="axis" text-anchor="middle">35</text>
<line x1="720.0" y1="92" x2="720.0" y2="492" stroke="#d8d6d0" stroke-width="1"/>
<text x="720.0" y="516.0" class="axis" text-anchor="middle">40</text>
<line x1="78" y1="470.9" x2="720" y2="470.9" stroke="#d8d6d0" stroke-width="1"/>
<text x="66.0" y="474.9" class="axis" text-anchor="end">3</text>
<line x1="78" y1="428.8" x2="720" y2="428.8" stroke="#d8d6d0" stroke-width="1"/>
<text x="66.0" y="432.8" class="axis" text-anchor="end">4</text>
<line x1="78" y1="386.7" x2="720" y2="386.7" stroke="#d8d6d0" stroke-width="1"/>
<text x="66.0" y="390.7" class="axis" text-anchor="end">5</text>
<line x1="78" y1="344.6" x2="720" y2="344.6" stroke="#d8d6d0" stroke-width="1"/>
<text x="66.0" y="348.6" class="axis" text-anchor="end">6</text>
<line x1="78" y1="260.4" x2="720" y2="260.4" stroke="#d8d6d0" stroke-width="1"/>
<text x="66.0" y="264.4" class="axis" text-anchor="end">8</text>
<line x1="78" y1="176.2" x2="720" y2="176.2" stroke="#d8d6d0" stroke-width="1"/>
<text x="66.0" y="180.2" class="axis" text-anchor="end">10</text>
<line x1="78" y1="92.0" x2="720" y2="92.0" stroke="#d8d6d0" stroke-width="1"/>
<text x="66.0" y="96.0" class="axis" text-anchor="end">12</text>
<rect x="78" y="92" width="642" height="400" fill="none" stroke="#20242b" stroke-width="1.5"/>
<polyline points="147.8,101.8 149.8,112.1 151.9,132.2 153.9,147.0 156.0,154.6 158.0,123.3 160.1,122.9 162.1,129.8 164.2,160.6 166.3,160.1 168.3,196.5 170.4,215.6 172.4,214.7 174.5,218.3 176.5,235.1 178.6,243.1 180.6,252.0 182.7,264.0 184.7,263.5 186.8,264.1 188.8,269.8 190.9,279.5 192.9,289.4 195.0,301.3 197.0,314.8 199.1,326.6 201.1,333.2 203.2,343.1 205.2,345.3 207.3,348.2 209.4,348.2 211.4,350.1 213.5,348.3 215.5,338.1 217.6,338.9 219.6,312.7 221.7,289.0 223.7,278.2 225.8,278.5 227.8,265.9 229.9,269.6 231.9,286.9 234.0,285.6 236.0,286.9" fill="none" stroke="#d1495b" stroke-width="2.5" stroke-linejoin="round" stroke-linecap="round"/>
<circle cx="236.0" cy="301.3" r="4" fill="#d1495b"/>
<line x1="745" y1="109" x2="777" y2="109" stroke="#d1495b" stroke-width="3"/>
<text x="787.0" y="114.0" class="label">AdamW LR 0.1</text>
<text x="787.0" y="132.0" class="legend">7.028 at 9.8M</text>
<polyline points="153.9,118.6 156.0,133.4 158.0,153.2 160.1,171.9 162.1,190.6 164.2,210.2 166.3,227.7 168.3,245.7 170.4,257.1 172.4,266.9 174.5,264.5 176.5,272.3 178.6,278.2 180.6,294.1 182.7,297.9 184.7,309.7 186.8,319.3 188.8,324.0 190.9,325.1 192.9,332.4 195.0,337.7 197.0,342.0 199.1,347.2 201.1,352.0 203.2,357.7 205.2,361.7 207.3,366.6 209.4,370.7 211.4,372.9 213.5,374.8 215.5,377.8 217.6,377.8 219.6,378.4 221.7,378.4 223.7,376.6 225.8,374.4 227.8,375.9 229.9,375.6 231.9,374.9 234.0,375.5 236.0,378.9 238.1,377.6 240.1,378.9 242.2,382.6 244.2,384.4 246.3,386.2 248.3,390.8 250.4,392.2 252.4,394.3 254.5,398.1 256.6,400.3 258.6,398.6 260.7,399.6 262.7,395.2 264.8,389.9 266.8,387.7 268.9,389.8 270.9,390.3 273.0,396.5 275.0,400.8 277.1,402.5 279.1,400.6 281.2,400.5 283.2,400.3 285.3,402.3 287.3,403.1 289.4,406.9 291.4,407.8 293.5,408.5 295.5,409.0 297.6,410.8 299.7,411.3 301.7,413.3 303.8,414.0 305.8,414.4 307.9,414.3 309.9,416.2 312.0,416.3 314.0,418.4 316.1,418.8 318.1,419.1 320.2,419.3 322.2,420.9 324.3,420.9 326.3,423.1 328.4,423.9 330.4,424.0 332.5,424.6 334.5,426.6 336.6,425.8 338.6,426.9 340.7,428.3 342.8,429.2 344.8,428.5 346.9,430.1 348.9,430.9 351.0,430.9 353.0,431.0 355.1,432.6 357.1,432.8 359.2,433.3 361.2,434.0 363.3,434.0 365.3,434.3 367.4,435.5 369.4,435.7 371.5,436.4 373.5,437.8 375.6,438.4 377.6,438.3 379.7,439.0 381.7,439.4 383.8,439.4 385.9,439.3 387.9,440.0 390.0,441.0 392.0,441.6 394.1,442.1 396.1,442.8 398.2,443.0 400.2,443.1 402.3,443.2 404.3,444.0 406.4,444.5 408.4,445.0 410.5,445.0 412.5,445.2 414.6,445.3 416.6,445.7 418.7,445.8 420.7,446.7 422.8,447.8 424.8,448.0 426.9,448.5 429.0,449.1 431.0,449.0 433.1,449.4 435.1,449.7 437.2,449.2 439.2,449.6 441.3,450.4 443.3,450.1 445.4,450.7 447.4,451.3 449.5,451.9 451.5,451.7 453.6,452.0 455.6,451.8 457.7,452.0 459.7,452.2 461.8,452.2 463.8,453.0 465.9,453.4 467.9,453.7 470.0,453.8 472.1,454.2 474.1,454.2 476.2,454.5 478.2,454.6 480.3,455.2 482.3,456.0 484.4,456.4 486.4,456.6 488.5,456.9 490.5,456.7 492.6,456.5 494.6,456.7 496.7,456.6 498.7,456.9 500.8,457.5 502.8,457.5 504.9,457.7 506.9,457.8 509.0,458.4 511.0,458.6 513.1,458.9 515.1,459.0 517.2,459.6 519.3,460.1 521.3,460.0 523.4,460.2 525.4,460.4 527.5,460.5 529.5,460.1 531.6,460.4 533.6,460.5 535.7,460.4 537.7,460.7 539.8,460.5 541.8,460.4 543.9,460.8 545.9,461.1 548.0,461.4 550.0,461.7 552.1,462.1" fill="none" stroke="#edae49" stroke-width="2.5" stroke-linejoin="round" stroke-linecap="round"/>
<circle cx="552.1" cy="462.4" r="4" fill="#edae49"/>
<line x1="745" y1="154" x2="777" y2="154" stroke="#edae49" stroke-width="3"/>
<text x="787.0" y="159.0" class="label">AdamW LR 0.07</text>
<text x="787.0" y="177.0" class="legend">3.203 at 29.5M</text>
<polyline points="170.4,122.9 172.4,151.9 174.5,177.0 176.5,195.1 178.6,206.9 180.6,218.8 182.7,237.1 184.7,259.2 186.8,282.4 188.8,303.1 190.9,319.1 192.9,329.6 195.0,336.0 197.0,342.1 199.1,347.6 201.1,353.5 203.2,360.6 205.2,365.8 207.3,369.7 209.4,373.0 211.4,375.3 213.5,378.2 215.5,382.6 217.6,384.8 219.6,386.5 221.7,389.4 223.7,390.5 225.8,389.8 227.8,391.2 229.9,393.7 231.9,393.8 234.0,395.1 236.0,397.2 238.1,399.1 240.1,400.5 242.2,402.0 244.2,403.1 246.3,404.7 248.3,405.7 250.4,405.2 252.4,406.2 254.5,408.4 256.6,409.6 258.6,411.1 260.7,413.2 262.7,414.4 264.8,415.8 266.8,416.1 268.9,416.3 270.9,417.7 273.0,419.1 275.0,418.8 277.1,420.4 279.1,422.2 281.2,422.3 283.2,423.3 285.3,424.4 287.3,424.2 289.4,425.3 291.4,426.4 293.5,426.0 295.5,426.7 297.6,428.1 299.7,428.7 301.7,429.4 303.8,431.4 305.8,432.0 307.9,432.0 309.9,433.3 312.0,434.4 314.0,434.3 316.1,435.4 318.1,436.9 320.2,437.3 322.2,437.9 324.3,438.2 326.3,438.8 328.4,439.2 330.4,439.8 332.5,440.2 334.5,441.2 336.6,441.4 338.6,442.1 340.7,442.7 342.8,443.0 344.8,443.4 346.9,444.3 348.9,444.6 351.0,444.9 353.0,445.7 355.1,446.2 357.1,447.1 359.2,447.5 361.2,448.0 363.3,448.7 365.3,449.5 367.4,449.8 369.4,451.0 371.5,451.1 373.5,451.5 375.6,452.0 377.6,452.1 379.7,451.9 381.7,452.5 383.8,452.9 385.9,452.7 387.9,453.1 390.0,453.8 392.0,454.2 394.1,454.6 396.1,455.5 398.2,456.1 400.2,456.4 402.3,456.7 404.3,457.4 406.4,457.6 408.4,457.9 410.5,458.5 412.5,458.9 414.6,458.8 416.6,458.9 418.7,459.2 420.7,458.9 422.8,459.2 424.8,459.3 426.9,459.8 429.0,460.2 431.0,460.7 433.1,461.3 435.1,461.9 437.2,462.0 439.2,462.2 441.3,462.7 443.3,462.5 445.4,462.1 447.4,462.4 449.5,462.8 451.5,462.9 453.6,463.8 455.6,464.3 457.7,464.6 459.7,464.7 461.8,464.9 463.8,465.1 465.9,465.5 467.9,466.3 470.0,466.5 472.1,466.7 474.1,466.6 476.2,466.8 478.2,466.6 480.3,466.3 482.3,466.6 484.4,466.6 486.4,466.6 488.5,467.0 490.5,467.4 492.6,467.4 494.6,467.3 496.7,468.1 498.7,468.1 500.8,469.1 502.8,469.4 504.9,470.1 506.9,469.8 509.0,469.7 511.0,468.9 513.1,469.6 515.1,469.7 517.2,470.1 519.3,470.9 521.3,471.2 523.4,470.9 525.4,471.4 527.5,471.9 529.5,471.3 531.6,471.3 533.6,471.9 535.7,471.9 537.7,472.0 539.8,472.6 541.8,473.4 543.9,472.9 545.9,473.0 548.0,472.7 550.0,472.9 552.1,473.1 554.1,473.2 556.2,473.4 558.2,473.7 560.3,473.6 562.4,473.5 564.4,474.3 566.5,474.4 568.5,474.2 570.6,474.2 572.6,474.2 574.7,474.3 576.7,474.3 578.8,474.7 580.8,474.7 582.9,475.0 584.9,474.6 587.0,474.8 589.0,475.1 591.1,475.6 593.1,475.6 595.2,476.1 597.2,476.3 599.3,475.9 601.3,475.8 603.4,476.2 605.5,476.1 607.5,476.3 609.6,476.6 611.6,476.8 613.7,476.8 615.7,477.2 617.8,477.4 619.8,477.6 621.9,477.5 623.9,477.9 626.0,478.1 628.0,477.8 630.1,477.8 632.1,478.0 634.2,478.3 636.2,477.9 638.3,478.4 640.3,478.3 642.4,478.5 644.4,477.6 646.5,477.8 648.6,478.0 650.6,478.5 652.7,478.1 654.7,478.4 656.8,478.4 658.8,478.2 660.9,477.9 662.9,478.0 665.0,478.3 667.0,478.3" fill="none" stroke="#00798c" stroke-width="2.5" stroke-linejoin="round" stroke-linecap="round"/>
<circle cx="667.0" cy="477.8" r="4" fill="#00798c"/>
<line x1="745" y1="199" x2="777" y2="199" stroke="#00798c" stroke-width="3"/>
<text x="787.0" y="204.0" class="label">AdamW LR 0.03</text>
<text x="787.0" y="222.0" class="legend">2.837 at 36.7M</text>
<polyline points="176.5,112.4 178.6,115.4 180.6,125.7 182.7,142.7 184.7,160.8 186.8,170.6 188.8,192.0 190.9,212.2 192.9,234.2 195.0,248.4 197.0,253.1 199.1,261.5 201.1,271.4 203.2,274.8 205.2,281.9 207.3,298.5 209.4,312.7 211.4,324.2 213.5,335.3 215.5,344.7 217.6,352.9 219.6,360.7 221.7,365.9 223.7,371.5 225.8,376.0 227.8,379.5 229.9,379.1 231.9,378.8 234.0,380.5 236.0,380.9 238.1,381.8 240.1,386.3 242.2,389.6 244.2,391.6 246.3,395.4 248.3,397.8 250.4,399.5 252.4,401.5 254.5,402.9 256.6,403.7 258.6,405.2 260.7,405.3 262.7,405.9 264.8,407.6 266.8,407.3 268.9,407.4 270.9,408.0 273.0,409.2 275.0,410.6 277.1,411.0 279.1,410.3 281.2,411.7 283.2,411.3 285.3,410.7 287.3,412.8 289.4,414.8 291.4,415.2 293.5,417.4 295.5,418.0 297.6,418.9 299.7,420.1 301.7,420.8 303.8,421.5 305.8,423.1 307.9,424.8 309.9,425.4 312.0,426.0 314.0,427.8 316.1,428.3 318.1,428.0 320.2,428.7 322.2,429.2 324.3,428.7 326.3,429.0 328.4,430.3 330.4,430.7 332.5,432.0 334.5,433.1 336.6,434.2 338.6,434.7 340.7,435.6 342.8,436.2 344.8,436.3 346.9,435.9 348.9,436.4 351.0,437.0 353.0,437.6 355.1,438.7 357.1,440.3 359.2,441.3 361.2,442.2 363.3,442.9 365.3,443.0 367.4,443.1 369.4,442.8 371.5,442.7 373.5,442.8 375.6,443.3 377.6,444.3 379.7,445.2 381.7,445.7 383.8,446.4 385.9,447.6 387.9,447.5 390.0,447.8 392.0,448.0 394.1,448.1 396.1,448.1 398.2,448.5 400.2,448.8 402.3,449.7 404.3,450.3 406.4,450.5 408.4,450.9 410.5,451.4 412.5,451.3 414.6,451.3 416.6,451.7 418.7,452.4 420.7,452.5 422.8,453.4 424.8,454.2 426.9,454.5 429.0,454.8 431.0,455.1 433.1,455.2 435.1,455.7 437.2,456.1 439.2,456.6 441.3,457.2 443.3,457.6 445.4,457.4 447.4,457.8 449.5,457.6 451.5,458.0 453.6,458.6 455.6,459.3 457.7,459.3 459.7,459.8 461.8,459.9 463.8,460.0 465.9,460.1 467.9,460.5 470.0,461.0 472.1,461.3 474.1,461.8 476.2,462.1 478.2,462.6 480.3,462.7 482.3,462.9 484.4,463.0 486.4,463.2 488.5,462.9 490.5,463.2 492.6,463.4 494.6,463.7 496.7,464.3 498.7,464.8 500.8,464.7 502.8,464.8 504.9,465.0 506.9,464.8 509.0,465.0 511.0,465.6 513.1,465.7 515.1,466.2 517.2,465.9 519.3,466.2 521.3,466.1 523.4,466.5 525.4,466.3 527.5,467.0 529.5,467.5 531.6,468.1 533.6,468.3 535.7,468.2 537.7,468.0 539.8,467.7 541.8,467.9 543.9,468.2 545.9,468.2 548.0,468.4 550.0,468.5 552.1,468.2 554.1,468.3 556.2,469.0 558.2,468.6 560.3,469.3 562.4,469.6 564.4,469.4 566.5,469.6 568.5,470.8 570.6,470.8 572.6,470.6 574.7,470.7 576.7,471.0 578.8,471.0 580.8,471.2 582.9,471.3 584.9,472.2 587.0,472.0 589.0,471.8 591.1,472.1 593.1,472.6 595.2,471.5 597.2,471.3 599.3,471.0 601.3,470.9 603.4,471.1 605.5,472.3 607.5,473.0 609.6,473.3 611.6,473.4 613.7,473.2 615.7,473.2 617.8,472.7 619.8,473.2 621.9,472.9 623.9,472.9 626.0,472.2 628.0,472.2 630.1,472.0 632.1,472.5 634.2,472.4 636.2,473.2 638.3,473.7 640.3,473.7 642.4,473.8 644.4,474.4 646.5,474.2 648.6,474.4 650.6,474.8 652.7,474.6 654.7,474.9 656.8,475.0 658.8,475.1 660.9,475.3 662.9,475.2 665.0,475.1 667.0,475.6 669.1,475.1 671.1,474.9 673.2,475.4 675.2,475.6 677.3,475.4 679.3,475.8 681.4,475.9 683.4,476.0 685.5,475.9 687.5,475.8 689.6,475.6 691.7,474.9 693.7,474.4 695.8,474.7 697.8,475.5 699.9,475.8 701.9,476.5 704.0,476.9 706.0,476.6 708.1,475.7 710.1,476.1 712.2,476.5 714.2,476.5 716.3,476.3 718.3,476.8 720.4,476.6" fill="none" stroke="#30638e" stroke-width="2.5" stroke-linejoin="round" stroke-linecap="round"/>
<circle cx="720.4" cy="476.9" r="4" fill="#30638e"/>
<line x1="745" y1="244" x2="777" y2="244" stroke="#30638e" stroke-width="3"/>
<text x="787.0" y="249.0" class="label">AdamW LR 0.025</text>
<text x="787.0" y="267.0" class="legend">2.859 at 40.0M</text>
<polyline points="156.0,95.6 158.0,101.8 160.1,111.1 162.1,120.1 164.2,122.0 166.3,127.3 168.3,138.6 170.4,152.3 172.4,163.9 174.5,180.2 176.5,197.2 178.6,212.4 180.6,220.4 182.7,215.4 184.7,215.6 186.8,219.5 188.8,221.3 190.9,226.6 192.9,241.0 195.0,249.1 197.0,251.7 199.1,254.4 201.1,260.7 203.2,268.7 205.2,275.5 207.3,281.8 209.4,286.4 211.4,287.7 213.5,292.4 215.5,297.3 217.6,300.8 219.6,303.5 221.7,307.5 223.7,313.1 225.8,313.9 227.8,313.9 229.9,313.8 231.9,316.1 234.0,316.5 236.0,320.3 238.1,326.2 240.1,333.2 242.2,334.2 244.2,333.2 246.3,335.4 248.3,339.3 250.4,341.0 252.4,346.4 254.5,352.2 256.6,357.0 258.6,360.6 260.7,364.1 262.7,367.1 264.8,368.6 266.8,369.4 268.9,369.8 270.9,372.8 273.0,374.0 275.0,376.5 277.1,376.7 279.1,377.0 281.2,376.6 283.2,378.4 285.3,379.2 287.3,381.3 289.4,384.2 291.4,386.8 293.5,389.8 295.5,390.9 297.6,393.2 299.7,395.6 301.7,396.3 303.8,394.9 305.8,395.3 307.9,395.9 309.9,395.6 312.0,394.5 314.0,395.2 316.1,397.8 318.1,398.9 320.2,400.2 322.2,403.1 324.3,405.1 326.3,406.0 328.4,406.2 330.4,406.0 332.5,406.4 334.5,407.7 336.6,409.3 338.6,411.0 340.7,412.6 342.8,414.8 344.8,416.8 346.9,417.2 348.9,416.7 351.0,417.9 353.0,416.8 355.1,415.3 357.1,415.2 359.2,417.2 361.2,417.0 363.3,418.0 365.3,419.9 367.4,421.3 369.4,420.5 371.5,421.5 373.5,422.9 375.6,423.0 377.6,423.3 379.7,425.3 381.7,425.3 383.8,426.2 385.9,427.2 387.9,427.7 390.0,428.5 392.0,430.7 394.1,431.2 396.1,432.1 398.2,432.6 400.2,433.1 402.3,432.5 404.3,432.8 406.4,433.3 408.4,434.4 410.5,434.4 412.5,435.0 414.6,436.3 416.6,437.0 418.7,437.2 420.7,438.0 422.8,438.9 424.8,438.1 426.9,437.6 429.0,437.8 431.0,438.2 433.1,438.2 435.1,438.7 437.2,439.4 439.2,440.2 441.3,440.6 443.3,440.5 445.4,441.2 447.4,442.4 449.5,442.8 451.5,442.9 453.6,443.3 455.6,443.7 457.7,443.3 459.7,442.9 461.8,443.6 463.8,444.6 465.9,445.0 467.9,445.6 470.0,447.2 472.1,447.2 474.1,446.9 476.2,447.4 478.2,447.8 480.3,447.5 482.3,447.8 484.4,448.7 486.4,448.9 488.5,449.2 490.5,449.6 492.6,450.4 494.6,450.2 496.7,450.1 498.7,450.6 500.8,451.3 502.8,451.1 504.9,451.4 506.9,451.8 509.0,452.4 511.0,452.0 513.1,452.1 515.1,452.4 517.2,453.0 519.3,452.8 521.3,453.1 523.4,453.5 525.4,453.9 527.5,454.0 529.5,454.0 531.6,453.8 533.6,454.6 535.7,455.1 537.7,455.0 539.8,455.4 541.8,455.6 543.9,455.4 545.9,455.2 548.0,455.5 550.0,456.2 552.1,456.5 554.1,457.0 556.2,457.2 558.2,457.8 560.3,457.2 562.4,457.2 564.4,457.1 566.5,457.4 568.5,457.1 570.6,457.4 572.6,457.9 574.7,457.7 576.7,457.5 578.8,458.2 580.8,458.7 582.9,458.7 584.9,459.1 587.0,459.2 589.0,458.7 591.1,458.6 593.1,458.7 595.2,458.8 597.2,459.0 599.3,459.1 601.3,459.5 603.4,459.7 605.5,459.5 607.5,460.1 609.6,460.7 611.6,460.9 613.7,461.3 615.7,462.1 617.8,462.2 619.8,461.9 621.9,461.2 623.9,461.0 626.0,460.5 628.0,460.7 630.1,460.8 632.1,461.1 634.2,462.0 636.2,462.6 638.3,462.5 640.3,463.2 642.4,463.7 644.4,463.3 646.5,462.7 648.6,462.5 650.6,461.3 652.7,461.6 654.7,461.8 656.8,462.4 658.8,462.6 660.9,463.8 662.9,463.5 665.0,463.8 667.0,463.8 669.1,464.6 671.1,464.0 673.2,464.5 675.2,464.2 677.3,464.4 679.3,464.1 681.4,464.5 683.4,464.3 685.5,464.5 687.5,464.5 689.6,464.6 691.7,464.5 693.7,464.7 695.8,464.2 697.8,463.8 699.9,463.7 701.9,464.0" fill="none" stroke="#6a4c93" stroke-width="2.5" stroke-linejoin="round" stroke-linecap="round"/>
<circle cx="701.9" cy="465.1" r="4" fill="#6a4c93"/>
<line x1="745" y1="289" x2="777" y2="289" stroke="#6a4c93" stroke-width="3"/>
<text x="787.0" y="294.0" class="label">AdamW LR 0.01</text>
<text x="787.0" y="312.0" class="legend">3.138 at 38.9M</text>
<polyline points="162.1,99.4 164.2,113.5 166.3,116.5 168.3,131.3 170.4,157.3 172.4,178.0 174.5,191.8 176.5,204.9 178.6,218.1 180.6,222.1 182.7,227.5 184.7,236.1 186.8,244.3 188.8,250.4 190.9,260.4 192.9,269.5 195.0,274.4 197.0,283.4 199.1,285.8 201.1,280.6 203.2,276.9 205.2,277.2 207.3,274.1 209.4,276.1 211.4,284.0 213.5,291.4 215.5,294.6 217.6,298.7 219.6,304.8 221.7,311.8 223.7,317.0 225.8,324.3 227.8,328.9 229.9,331.3 231.9,334.5 234.0,336.6 236.0,338.1 238.1,342.1 240.1,345.8 242.2,348.6 244.2,353.0 246.3,357.3 248.3,360.3 250.4,363.3 252.4,364.6 254.5,365.1 256.6,367.0 258.6,368.7 260.7,368.7 262.7,368.5 264.8,370.3 266.8,370.7 268.9,372.8 270.9,377.5 273.0,382.8 275.0,385.6 277.1,389.3 279.1,390.2 281.2,389.9 283.2,388.8 285.3,387.4 287.3,386.7 289.4,386.9 291.4,386.7 293.5,388.1 295.5,390.0 297.6,389.4 299.7,391.2 301.7,393.1 303.8,393.1 305.8,395.0 307.9,397.5 309.9,396.9 312.0,396.4 314.0,398.0 316.1,398.0 318.1,399.3 320.2,402.0 322.2,405.1 324.3,406.7 326.3,407.9 328.4,409.1 330.4,410.6 332.5,410.8 334.5,411.8 336.6,412.1 338.6,410.8 340.7,410.6 342.8,412.0 344.8,412.5 346.9,413.5 348.9,416.3 351.0,417.3 353.0,418.3 355.1,419.0 357.1,419.3 359.2,419.7 361.2,419.4 363.3,419.1 365.3,419.0 367.4,419.4 369.4,419.2 371.5,420.1 373.5,420.8 375.6,421.8 377.6,422.7 379.7,422.9 381.7,423.5 383.8,424.1 385.9,424.6 387.9,425.6 390.0,427.0 392.0,427.5 394.1,428.2 396.1,429.6 398.2,430.1 400.2,430.6 402.3,431.2 404.3,431.8 406.4,432.0 408.4,431.4 410.5,430.8 412.5,431.0 414.6,431.1 416.6,431.5 418.7,432.9 420.7,433.7 422.8,434.5 424.8,435.7 426.9,436.0 429.0,436.0 431.0,436.5 433.1,436.7 435.1,436.6 437.2,436.6 439.2,436.9 441.3,437.8 443.3,439.0 445.4,439.1 447.4,439.5 449.5,440.2 451.5,440.3 453.6,440.5 455.6,441.0 457.7,441.8 459.7,441.8 461.8,441.9 463.8,442.0 465.9,442.5 467.9,442.4 470.0,442.9 472.1,443.3 474.1,443.1 476.2,443.8 478.2,444.0 480.3,444.2 482.3,444.3 484.4,444.9 486.4,445.1 488.5,445.6 490.5,445.7 492.6,446.2 494.6,446.1 496.7,446.3 498.7,446.1 500.8,447.2 502.8,447.9 504.9,448.9 506.9,449.1 509.0,449.9 511.0,448.7 513.1,448.6 515.1,448.5 517.2,448.5 519.3,448.8 521.3,450.5 523.4,450.6 525.4,451.2 527.5,450.8 529.5,450.7 531.6,450.4 533.6,451.1 535.7,451.2 537.7,452.1 539.8,452.9 541.8,452.9 543.9,452.8 545.9,452.4 548.0,452.3 550.0,452.1 552.1,452.3 554.1,452.4 556.2,453.0 558.2,453.3 560.3,453.5 562.4,453.7 564.4,453.9 566.5,453.8 568.5,453.5 570.6,453.6 572.6,453.4 574.7,453.3 576.7,453.9 578.8,454.6 580.8,455.4 582.9,456.0 584.9,456.1 587.0,456.1 589.0,456.0 591.1,455.7 593.1,455.5 595.2,455.6 597.2,455.6 599.3,455.6 601.3,455.7 603.4,456.3 605.5,456.4 607.5,456.1 609.6,456.7 611.6,456.5 613.7,456.6 615.7,457.1 617.8,457.6 619.8,457.6 621.9,458.3 623.9,458.3 626.0,458.2 628.0,458.2 630.1,458.7 632.1,458.3 634.2,458.4 636.2,458.7 638.3,459.0 640.3,459.0 642.4,459.2 644.4,459.0 646.5,458.5 648.6,458.6 650.6,458.3 652.7,459.2 654.7,459.4 656.8,459.7 658.8,458.9 660.9,459.2 662.9,458.0 665.0,458.2 667.0,458.7 669.1,459.5 671.1,459.7 673.2,460.2 675.2,460.7 677.3,460.4 679.3,460.3 681.4,460.1 683.4,460.5 685.5,460.3" fill="none" stroke="#2a9d8f" stroke-width="2.5" stroke-linejoin="round" stroke-linecap="round"/>
<circle cx="685.5" cy="461.3" r="4" fill="#2a9d8f"/>
<line x1="745" y1="334" x2="777" y2="334" stroke="#2a9d8f" stroke-width="3"/>
<text x="787.0" y="339.0" class="label">AdamW LR 0.005</text>
<text x="787.0" y="357.0" class="legend">3.228 at 37.9M</text>
<text x="399.0" y="541.0" class="label" text-anchor="middle">Training tokens (millions)</text>
<text x="20" y="292.0" class="label" text-anchor="middle" transform="rotate(-90 20 292.0)">Train loss / token</text>
<text x="745.0" y="407.0" class="subtitle">Muon matrix LR: 0.02</text>
<text x="745.0" y="429.0" class="subtitle">Single run per setting</text>
</svg>
